# xmcd
#
# Track frame offsets:
#	150
#	14173
#	29923
#	46064
#	62316
#	76925
#	88571
#	105158
#	122747
#	142427
#	153108
#	169834
#	192607
#
# Disc length: 2796 seconds
#
# Revision: 1
# Processed by: cddbd v1.5.2PL0 Copyright (c) Steve Scherf et al.
# Submitted via: audiograbber 1.83.01
#
DISCID=ab0aea0d
DTITLE=Bitter Sweet - Faraway Look
DYEAR=1998
DGENRE=
TTITLE0=Ain´t Leavin
TTITLE1=Daddys Song
TTITLE2=Long Overdue
TTITLE3=You Lost The Feeling
TTITLE4=Faraway Look
TTITLE5=Happy Houe
TTITLE6=Your Cheating Heart
TTITLE7=Guess It Wasn´t In The Cards
TTITLE8=She´s Gone
TTITLE9=Light Of The Moon
TTITLE10=White Knight
TTITLE11=Uncivil War
TTITLE12=Second Chances
EXTD=
EXTT0=
EXTT1=
EXTT2=
EXTT3=
EXTT4=
EXTT5=
EXTT6=
EXTT7=
EXTT8=
EXTT9=
EXTT10=
EXTT11=
EXTT12=
PLAYORDER=
